{"title":"Spiller ft. Sopphie Ellis Bextor - Groovejet","uid":9406592,"size":135258036,"categoryP":"video","categoryS":"music_videos","magnet":"?xt=urn:btih:6d67c5f35b324895fa1d0034a3dafbc683b9f626&amp;dn=Spiller+ft.+Sopphie+Ellis+Bextor+-+Groovejet&amp;tr=udp%3A%2F%2Ftracker.openbittorrent.com%3A80&amp;tr=udp%3A%2F%2Fopen.demonii.com%3A1337&amp;tr=udp%3A%2F%2Ftracker.coppersurfer.tk%3A6969&amp;tr=udp%3A%2F%2Fexodus.desync.com%3A6969","seeders":1,"leechers":0,"uploader":"tlbslicer","files":6,"time":1388172230,"description":"Screenshots :\n &lt;a href=&quot;\nhttp://s8.postimg.org/6mxvujw7p/vlcsnap_2013_12_27_20h14m58s141.png&quot; rel=&quot;nofollow&quot; target=&quot;_NEW&quot;&gt;\nhttp://s8.postimg.org/6mxvujw7p/vlcsnap_2013_12_27_20h14m58s141.png&lt;/a&gt;\n &lt;a href=&quot;\nhttp://s8.postimg.org/6x5edwatx/vlcsnap_2013_12_27_20h15m26s179.png&quot; rel=&quot;nofollow&quot; target=&quot;_NEW&quot;&gt;\nhttp://s8.postimg.org/6x5edwatx/vlcsnap_2013_12_27_20h15m26s179.png&lt;/a&gt;\n &lt;a href=&quot;\nhttp://s8.postimg.org/vb3olj7x1/vlcsnap_2013_12_27_20h15m40s64.png&quot; rel=&quot;nofollow&quot; target=&quot;_NEW&quot;&gt;\nhttp://s8.postimg.org/vb3olj7x1/vlcsnap_2013_12_27_20h15m40s64.png&lt;/a&gt;\n &lt;a href=&quot;\nhttp://s8.postimg.org/xgxzg1bdh/vlcsnap_2013_12_27_20h15m59s2.png&quot; rel=&quot;nofollow&quot; target=&quot;_NEW&quot;&gt;\nhttp://s8.postimg.org/xgxzg1bdh/vlcsnap_2013_12_27_20h15m59s2.png&lt;/a&gt;\n\n\nSpiller.ft.Sopphie.Ellis.Bextor-Groovejet(if.this.aint.love).1080p.HDTV.shadowCopy\n\nFormat                                   : MPEG-4\nFormat profile                           : Base Media\nCodec ID                                 : isom\nFile size                                : 121 MiB\nDuration                                 : 3mn 37s\nOverall bit rate mode                    : Variable\nOverall bit rate                         : 4 660 Kbps\nWriting application                      : Lavf54.63.104\n\nVideo\nID                                       : 1\nFormat                                   : AVC\nFormat/Info                              : Advanced Video Codec\nFormat profile                           : &lt;a class=&quot;__cf_email__&quot; href=&quot;/cdn-cgi/l/email-protection&quot; data-cfemail=&quot;c68ba7afa8868af2e8f6&quot;&gt;[email&amp;#160;protected]&lt;/a&gt;&lt;script cf-hash='f9e31' type=&quot;text/javascript&quot;&gt;\n/* &lt;![CDATA[ */!function(){try{var t=&quot;currentScript&quot;in document?document.currentScript:function(){for(var t=document.getElementsByTagName(&quot;script&quot;),e=t.length;e--;)if(t[e].getAttribute(&quot;cf-hash&quot;))return t[e]}();if(t&amp;&amp;t.previousSibling){var e,r,n,i,c=t.previousSibling,a=c.getAttribute(&quot;data-cfemail&quot;);if(a){for(e=&quot;&quot;,r=parseInt(a.substr(0,2),16),n=2;a.length-n;n+=2)i=parseInt(a.substr(n,2),16)^r,e+=String.fromCharCode(i);e=document.createTextNode(e),c.parentNode.replaceChild(e,c)}}}catch(u){}}();/* ]]&gt; */&lt;/script&gt;\nFormat settings, CABAC                   : Yes\nFormat settings, ReFrames                : 4 frames\nCodec ID                                 : avc1\nCodec ID/Info                            : Advanced Video Coding\nDuration                                 : 3mn 37s\nBit rate                                 : 4 528 Kbps\nWidth                                    : 1 920 pixels\nHeight                                   : 1 088 pixels\nOriginal height                          : 1 080 pixels\nDisplay aspect ratio                     : 16:9\nOriginal display aspect ratio            : 16:9\nFrame rate mode                          : Variable\nFrame rate                               : 49.815 fps\nOriginal frame rate                      : 25.000 fps\nMinimum frame rate                       : 1.220 fps\nMaximum frame rate                       : 50.040 fps\nColor space                              : YUV\nChroma subsampling                       : 4:2:0\nBit depth                                : 8 bits\nScan type                                : Interlaced\nScan order                               : Top Field First\nBits/(Pixel*Frame)                       : 0.044\nStream size                              : 117 MiB (97%)\n\nAudio\nID                                       : 2\nFormat                                   : AAC\nFormat/Info                              : Advanced Audio Codec\nFormat profile                           : HE-AAC / LC\nCodec ID                                 : 40\nDuration                                 : 3mn 37s\nBit rate mode                            : Variable\nBit rate                                 : 127 Kbps\nMaximum bit rate                         : 128 Kbps\nChannel(s)                               : 2 channels\nChannel positions                        : Front: L R\nSampling rate                            : 48.0 KHz / 24.0 KHz\nCompression mode                         : Lossy\nStream size                              : 3.29 MiB (3%)\n","torrent":{"xt":"urn:btih:6d67c5f35b324895fa1d0034a3dafbc683b9f626","amp;dn":"Spiller+ft.+Sopphie+Ellis+Bextor+-+Groovejet","amp;tr":["udp%3A%2F%2Ftracker.openbittorrent.com%3A80","udp%3A%2F%2Fopen.demonii.com%3A1337","udp%3A%2F%2Ftracker.coppersurfer.tk%3A6969","udp%3A%2F%2Fexodus.desync.com%3A6969"],"infoHash":"6d67c5f35b324895fa1d0034a3dafbc683b9f626","infoHashBuffer":{"type":"Buffer","data":[109,103,197,243,91,50,72,149,250,29,0,52,163,218,251,198,131,185,246,38]},"announce":[],"urlList":[]}}